<svg width="272" height="34" viewBox="0 0 272 34" fill="none" xmlns="http://www.w3.org/2000/svg">
<path d="M233.512 33.3051C235.55 30.3869 237.403 27.237 238.514 25.0136L248.937 4.63211C247.779 3.19614 246.204 1.94546 244.675 1.01903V0.880066L254.125 0.926387L256.997 6.48497L265.705 24.1798C267.512 27.4686 269.087 30.3869 271.356 33.3051H262.092C261.953 31.3596 261.305 29.4605 260.054 26.5422L258.525 23.5313C255.792 23.4387 253.013 23.346 250.141 23.346C247.732 23.346 245.092 23.4387 242.452 23.5313L240.599 27.6076C240.275 28.1171 239.163 30.9891 239.07 33.3051H233.512ZM243.656 21.0299C246.019 21.1226 248.52 21.1689 251.068 21.1689C253.059 21.1689 255.144 21.1226 257.275 21.0299L252.133 10.2833C251.67 9.31059 251.068 8.24519 250.419 7.13347L243.656 21.0299Z" fill="#EBE3DD"/>
<path d="M180.839 0.880066H189.038L211.411 27.376C211.457 26.8201 211.457 26.1716 211.457 25.4768V8.75473C211.457 2.64028 210.531 0.880066 210.531 0.880066H215.626C215.626 0.880066 214.654 2.64028 214.654 8.75473V25.4768C214.654 28.3951 214.885 30.3406 215.163 31.5449L216.321 33.3051H208.585L186.351 6.90186C186.305 7.45772 186.305 8.0599 186.305 8.75473V25.4768C186.305 31.5449 187.278 33.3051 187.278 33.3051H182.182C182.182 33.3051 183.109 31.5449 183.109 25.4768V8.75473C183.109 5.88279 182.923 3.98361 182.645 2.77925L180.839 0.880066Z" fill="#EBE3DD"/>
<path d="M126.593 0.880066H134.792L157.165 27.376C157.211 26.8201 157.211 26.1716 157.211 25.4768V8.75473C157.211 2.64028 156.285 0.880066 156.285 0.880066H161.38C161.38 0.880066 160.407 2.64028 160.407 8.75473V25.4768C160.407 28.3951 160.639 30.3406 160.917 31.5449L162.075 33.3051H154.339L132.105 6.90186C132.059 7.45772 132.059 8.0599 132.059 8.75473V25.4768C132.059 31.5449 133.031 33.3051 133.031 33.3051H127.936C127.936 33.3051 128.863 31.5449 128.863 25.4768V8.75473C128.863 5.88279 128.677 3.98361 128.399 2.77925L126.593 0.880066Z" fill="#EBE3DD"/>
<path d="M77.0625 33.3515C77.0625 33.3515 78.0353 31.5913 78.0353 25.5232V8.8011C78.0353 2.68666 77.0625 0.926438 77.0625 0.926438L103.975 0.787476L105.782 8.70846L105.411 8.94006C101.613 3.4278 92.0707 3.14987 84.2423 3.14987C84.057 4.35423 83.8718 6.20709 83.8718 8.8011V15.5177H92.3023C95.7301 15.5177 99.1579 15.4714 102.447 15.0545V18.2044C99.1579 17.8338 95.7764 17.7875 92.0244 17.7875H83.8718V25.5232C83.8718 27.8393 84.0107 29.7384 84.196 30.9428C93.5066 31.0354 103.003 30.4333 107.496 25.5232L107.866 25.7548L105.828 33.5368L77.0625 33.3515Z" fill="#EBE3DD"/>
<path d="M57.5107 0.880066C57.5107 0.880066 56.5379 2.64028 56.5379 8.75473V25.4768C56.5379 31.5449 57.5107 33.3051 57.5107 33.3051H49.8213C49.8213 33.3051 50.794 31.5449 50.794 25.4768V8.75473C50.794 2.64028 49.8213 0.880066 49.8213 0.880066H57.5107Z" fill="#EBE3DD"/>
<path d="M0.833788 9.49591C0.833788 5.14169 4.49319 0 14.267 0C19.594 0 23.8093 1.0654 27.376 2.50136L28.7193 11.0245L28.3488 11.2098C23.3924 3.84469 15.9809 2.31608 13.1553 2.31608C7.64305 2.31608 6.0218 5.00273 6.0218 7.27248C6.0218 9.91281 9.07902 11.9046 14.4523 13.3869L19.7793 14.8229C26.4033 16.6294 31.0817 19.2234 31.0817 24.0872C31.0817 29.97 23.624 34 15.842 34C10.515 34 6.16076 32.6104 1.80654 30.3869L0 20.7984L0.370572 20.6594C4.44687 27.6076 11.2098 31.545 17.5559 31.545C22.2343 31.545 25.1526 29.3215 25.1526 26.218C25.1526 23.6703 23.3924 21.8638 16.9074 20.0572L11.2561 18.4823C4.26158 16.5368 0.833788 13.1553 0.833788 9.49591Z" fill="#EBE3DD"/>
</svg>
