<svg width="240" height="179" viewBox="0 0 240 179" fill="none" xmlns="http://www.w3.org/2000/svg">
<path d="M101.053 121.141L46.015 179C25.2632 179 0 151.879 0 122.046C0 114.813 91.1278 16.2727 106.466 0L113.684 6.32831C94.7369 28.0253 61.3534 54.2424 61.3534 72.3233C61.3534 94.9242 66.7669 121.141 101.053 121.141ZM227.368 121.141L172.331 179C151.579 179 126.316 151.879 126.316 122.046C126.316 114.813 217.444 16.2727 232.782 0L240 6.32831C221.053 28.0253 187.669 54.2424 187.669 72.3233C187.669 94.9242 193.083 121.141 227.368 121.141Z" fill="#27221F"/>
</svg>
